<svg width="97" height="36" viewBox="0 0 97 36" fill="none" xmlns="http://www.w3.org/2000/svg">
<path d="M44.4065 27.8182V9.53182H52.1897C53.458 9.53182 54.5452 9.74455 55.4512 10.17C56.3572 10.5955 57.049 11.2091 57.5267 12.0109C58.0044 12.7964 58.2433 13.7536 58.2433 14.8827C58.2433 15.6846 58.0209 16.4536 57.5761 17.19C57.1314 17.91 56.3984 18.5155 55.3771 19.0064V17.1409C56.3489 17.5173 57.0984 17.9673 57.6255 18.4909C58.1527 19.0146 58.515 19.5873 58.7127 20.2091C58.9104 20.8146 59.0092 21.4527 59.0092 22.1236C59.0092 23.9236 58.408 25.3227 57.2055 26.3209C56.003 27.3191 54.3311 27.8182 52.1897 27.8182H44.4065ZM48.2363 24.5046H52.6344C53.4086 24.5046 54.0263 24.2836 54.4876 23.8418C54.9488 23.4 55.1794 22.8273 55.1794 22.1236C55.1794 21.4036 54.9488 20.8227 54.4876 20.3809C54.0263 19.9391 53.4086 19.7182 52.6344 19.7182H48.2363V24.5046ZM48.2363 16.4046H52.4615C53.0545 16.4046 53.5239 16.2409 53.8698 15.9136C54.2322 15.57 54.4134 15.12 54.4134 14.5636C54.4134 14.0073 54.2322 13.5655 53.8698 13.2382C53.5239 12.8946 53.0545 12.7227 52.4615 12.7227H48.2363V16.4046Z" fill="#141624"/>
<path d="M61.1942 27.8182V9.23728H64.9005V27.8182H61.1942Z" fill="#141624"/>
<path d="M74.3086 28.1127C72.9743 28.1127 71.7554 27.81 70.6517 27.2046C69.5646 26.5991 68.6915 25.7727 68.0326 24.7255C67.3902 23.6618 67.069 22.4591 67.069 21.1173C67.069 19.7591 67.3902 18.5564 68.0326 17.5091C68.6915 16.4618 69.5646 15.6355 70.6517 15.03C71.7554 14.4246 72.9743 14.1218 74.3086 14.1218C75.6429 14.1218 76.8536 14.4246 77.9407 15.03C79.0279 15.6355 79.8927 16.4618 80.5351 17.5091C81.194 18.5564 81.5235 19.7591 81.5235 21.1173C81.5235 22.4591 81.194 23.6618 80.5351 24.7255C79.8927 25.7727 79.0279 26.5991 77.9407 27.2046C76.8536 27.81 75.6429 28.1127 74.3086 28.1127ZM74.3086 24.7991C74.984 24.7991 75.5687 24.6436 76.0629 24.3327C76.5735 24.0218 76.9689 23.5882 77.2489 23.0318C77.5454 22.4755 77.6937 21.8373 77.6937 21.1173C77.6937 20.3973 77.5454 19.7673 77.2489 19.2273C76.9689 18.6709 76.5735 18.2373 76.0629 17.9264C75.5687 17.5991 74.984 17.4355 74.3086 17.4355C73.6332 17.4355 73.0402 17.5991 72.5296 17.9264C72.0189 18.2373 71.6154 18.6709 71.3189 19.2273C71.0388 19.7673 70.8988 20.3973 70.8988 21.1173C70.8988 21.8373 71.0388 22.4755 71.3189 23.0318C71.6154 23.5882 72.0189 24.0218 72.5296 24.3327C73.0402 24.6436 73.6332 24.7991 74.3086 24.7991Z" fill="#141624"/>
<path d="M90.3288 33.2182C89.291 33.2182 88.3274 33.0464 87.4379 32.7027C86.5484 32.3591 85.7824 31.8764 85.14 31.2546C84.514 30.6491 84.0611 29.9291 83.781 29.0946L87.2155 27.8918C87.3967 28.5136 87.7673 29.0046 88.3274 29.3646C88.8874 29.7246 89.5546 29.9046 90.3288 29.9046C90.9383 29.9046 91.4654 29.79 91.9101 29.5609C92.3549 29.3482 92.6926 29.0291 92.9232 28.6036C93.1703 28.1782 93.2938 27.6791 93.2938 27.1064V24.0382L94.0103 24.9218C93.5491 25.6746 92.9561 26.2391 92.2313 26.6155C91.5065 26.9755 90.6582 27.1555 89.6864 27.1555C88.4345 27.1555 87.3143 26.8773 86.326 26.3209C85.3377 25.7482 84.5635 24.9709 84.0034 23.9891C83.4433 22.9909 83.1633 21.8618 83.1633 20.6018C83.1633 19.3418 83.4433 18.2291 84.0034 17.2636C84.5635 16.2818 85.3294 15.5127 86.3013 14.9564C87.2732 14.4 88.3768 14.1218 89.6122 14.1218C90.5841 14.1218 91.4324 14.3182 92.1572 14.7109C92.882 15.0873 93.4997 15.6682 94.0103 16.4536L93.5409 17.3373V14.4164H97.0001V27.1064C97.0001 28.2846 96.7118 29.3318 96.1353 30.2482C95.5587 31.1809 94.7681 31.9091 93.7633 32.4327C92.7749 32.9564 91.6301 33.2182 90.3288 33.2182ZM90.2052 23.8173C90.8312 23.8173 91.3748 23.6864 91.836 23.4246C92.2972 23.1627 92.6514 22.7946 92.8985 22.32C93.162 21.8455 93.2938 21.2891 93.2938 20.6509C93.2938 20.0127 93.162 19.4564 92.8985 18.9818C92.6349 18.4909 92.2725 18.1146 91.8113 17.8527C91.3501 17.5746 90.8147 17.4355 90.2052 17.4355C89.5793 17.4355 89.0192 17.5746 88.5251 17.8527C88.0474 18.1146 87.6685 18.4909 87.3885 18.9818C87.1249 19.4564 86.9931 20.0127 86.9931 20.6509C86.9931 21.2727 87.1249 21.8209 87.3885 22.2955C87.6685 22.77 88.0474 23.1464 88.5251 23.4246C89.0192 23.6864 89.5793 23.8173 90.2052 23.8173Z" fill="#141624"/>
<path d="M18 36C27.9411 36 36 27.9411 36 18C36 8.05888 27.9411 0 18 0C8.05888 0 0 8.05888 0 18C0 22.152 1.40577 25.9756 3.76732 29.021L7.73554 14.0299C9.38672 7.52344 13.6758 4.15725 20.5616 4.15725H22.936C27.7785 4.15725 31.335 8.70307 30.1698 13.4033C29.9609 14.2463 29.5702 15.0334 29.0253 15.7097L27.0045 18.2174C26.486 18.8609 26.2968 19.7092 26.493 20.5121L27.109 23.0338C27.4278 24.339 27.3695 25.708 26.941 26.9814C25.4832 31.3132 21.4227 34.231 16.8521 34.231H10.2086C12.5662 35.3648 15.2089 36 18 36Z" fill="#141624"/>
<path fill-rule="evenodd" clip-rule="evenodd" d="M17.7 21.7592H14.1932C13.0747 21.7592 12.0968 22.5135 11.8129 23.5953L10.4373 28.8354H15.871C17.8811 28.8354 19.6384 27.4799 20.1487 25.5357L20.2666 25.0865C20.7082 23.4043 19.4392 21.7592 17.7 21.7592ZM16.6646 23.3514H14.759C14.1206 23.3514 13.5623 23.7814 13.3993 24.3988L12.6486 27.2432H15.6532C16.7647 27.2432 17.7364 26.4977 18.0186 25.4284L18.0838 25.1814C18.328 24.2562 17.6263 23.3514 16.6646 23.3514Z" fill="#141624"/>
<path fill-rule="evenodd" clip-rule="evenodd" d="M14.9971 11.7427C15.2811 10.6609 16.2589 9.90663 17.3774 9.90663H20.8843C22.6235 9.90663 23.8925 11.5517 23.4509 13.2339L23.333 13.6831C22.8227 15.6273 21.0654 16.9828 19.0553 16.9828H13.6216L14.9971 11.7427ZM16.5836 12.5462C16.7465 11.9289 17.3049 11.4988 17.9433 11.4988H19.8489C20.8106 11.4988 21.5123 12.4036 21.2681 13.3288L21.2029 13.5758C20.9207 14.6451 19.949 15.3907 18.8375 15.3907H15.8329L16.5836 12.5462Z" fill="#141624"/>
</svg>
